<svg width="131" height="131" viewBox="0 0 131 131" fill="none" xmlns="http://www.w3.org/2000/svg">
<rect y="0.945312" width="130" height="130" rx="65" transform="rotate(-0.416638 0 0.945312)" fill="black"/>
<path d="M110.101 73.6056C105.489 73.6056 102.331 69.9772 102.331 65.4497C102.331 60.9222 105.489 57.2938 110.101 57.2938C114.713 57.2938 117.87 60.9222 117.87 65.4497C117.87 69.9772 114.713 73.6056 110.101 73.6056ZM110.101 80.91C118.939 80.91 126.026 73.9917 126.026 65.455C126.026 56.9182 118.896 50 110.101 50C101.305 50 94.1752 56.9182 94.1752 65.455C94.1752 73.9917 101.263 80.91 110.101 80.91ZM93.8896 80.3969V73.5686H85.0938V50.5131H77.578V73.1401C77.578 78.4769 79.3287 80.3969 84.6654 80.3969H93.8843H93.8896ZM61.5203 57.3414H64.7202C66.5556 57.3414 67.6239 58.4944 67.6239 60.0283C67.6239 61.5621 66.5556 62.8897 64.7202 62.8897H61.5203V57.3414ZM61.5203 80.3969V69.6387H65.4924C71.2152 69.6387 75.309 65.2434 75.309 60.0759C75.309 54.9084 71.7653 50.5131 65.6617 50.5131H54.0045V80.3969H61.5203ZM43.7172 64.852L52.0846 50.5078H43.6326L39.4913 58.2352L35.3922 50.5078H26.8556L35.0114 65.3228L26.4272 80.3916H34.9638L39.3167 71.8972L43.5004 80.3916H52.1692L43.7172 64.852ZM25.1208 80.3969V73.5686H15.5158V68.6179H24.4385V61.9165H15.5158V57.3467H25.1208V50.5183H8V80.4022H25.1208V80.3969Z" fill="white"/>
</svg>
