<svg width="325" height="121" viewBox="0 0 325 121" fill="none" xmlns="http://www.w3.org/2000/svg">
<path d="M284.99 42.3003C284.99 45.9403 286.49 49.5303 290.02 49.5303C293.55 49.5303 295.05 45.9403 295.05 42.3003C295.05 38.6603 293.56 35.0903 290.02 35.0903C286.48 35.0903 284.99 38.6403 284.99 42.3003ZM293.51 42.3003C293.51 45.7103 292.29 48.1103 290.02 48.1103C287.75 48.1103 286.5 45.7103 286.5 42.3003C286.5 38.8903 287.74 36.5103 290.02 36.5103C292.3 36.5103 293.51 38.8903 293.51 42.3003ZM281.79 44.9503C281.79 46.9103 280.25 48.1103 278.44 48.1103C276.96 48.1103 275.9 47.3703 275.09 46.3303L274.01 47.3903C275.09 48.6903 276.54 49.5303 278.36 49.5303C281.48 49.5303 283.31 47.3803 283.31 44.9603C283.31 41.9803 281.16 40.4303 278.82 40.4303C277.52 40.4303 276.46 40.9303 275.96 41.4903L276.18 36.7803H282.27V35.3403H274.8L274.46 43.4003H275.83C276.27 42.6003 277.39 41.8603 278.61 41.8603C280.37 41.8603 281.79 42.9603 281.79 44.9603M266.78 42.9303C265.3 42.9303 263.72 41.7703 263.72 39.7303C263.72 37.4903 265.18 36.4903 266.7 36.4903C268.46 36.4903 269.82 37.9303 269.82 39.8703C269.82 41.6103 268.5 42.9303 266.78 42.9303ZM266.78 35.0903C264.54 35.0903 262.21 36.7603 262.21 39.7403C262.21 42.7203 264.44 44.3703 266.78 44.3703C268.12 44.3703 269.66 43.7503 270.46 42.2603C270.6 45.7303 269.16 48.1103 266.64 48.1103C265.4 48.1103 264.44 47.4703 263.84 46.6103L262.8 47.7303C263.6 48.7103 264.89 49.5303 266.63 49.5303C270.11 49.5303 271.86 46.7003 271.86 42.4403C271.86 38.1803 269.81 35.0903 266.77 35.0903M252.25 47.8703V49.3003H260.71V47.8703H257.34V35.3303H256.04C255.38 36.6703 253.66 37.1703 252.25 37.2303V38.5803C253.63 38.5803 255.02 38.2003 255.8 37.5803V47.8603H252.25V47.8703Z" fill="currentColor"/>
<path d="M302.389 21.2603C304.089 21.5603 305.329 22.3003 305.329 23.7803C305.329 25.4003 303.809 26.2803 301.909 26.2803C299.649 26.2803 298.269 25.2403 297.419 24.0603L296.379 25.1403C297.419 26.6003 299.349 27.6903 301.729 27.6903C304.869 27.6903 306.839 25.9803 306.839 23.7603C306.839 21.5403 305.209 20.1803 302.589 19.7703L301.209 19.5303C299.489 19.2503 298.229 18.5903 298.229 17.0703C298.229 15.6503 299.609 14.6703 301.429 14.6703C303.389 14.6703 304.569 15.5703 305.339 16.5103L306.359 15.3903C305.259 14.1903 303.769 13.2603 301.549 13.2603C299.109 13.2603 296.719 14.6603 296.719 17.1303C296.719 19.4503 298.619 20.6003 300.669 20.9603L302.389 21.2603ZM292.289 27.4703H293.799V13.5003H292.289V27.4703ZM287.569 21.9903C287.569 24.3603 286.269 26.2803 283.789 26.2803C281.309 26.2803 280.009 24.3703 280.009 22.0103V13.5003H278.479V21.9903C278.479 25.2403 280.409 27.6903 283.789 27.6903C287.169 27.6903 289.099 25.2403 289.099 21.9903V13.5003H287.569V21.9903ZM271.729 14.9303C273.769 14.9303 275.109 15.9903 275.109 17.9203C275.109 19.9503 273.729 20.9103 271.729 20.9103H268.149V14.9403H271.729V14.9303ZM271.519 22.3203C274.659 22.3203 276.629 20.6103 276.629 17.9203C276.629 15.2303 274.659 13.5003 271.519 13.5003H266.649V27.4703H268.159V22.3203H271.519ZM254.649 27.4703H263.809V26.0403H256.159V21.0603H263.589V19.6303H256.159V14.9303H263.809V13.5003H254.649V27.4703ZM244.669 14.9303C247.679 14.9303 250.499 16.3703 250.499 20.3903C250.499 24.4103 247.679 26.0303 244.689 26.0303H242.209V14.9303H244.669ZM240.699 27.4703H244.489C248.269 27.4703 252.079 25.7003 252.079 20.3903C252.079 15.0803 248.269 13.4903 244.489 13.4903H240.699V27.4603V27.4703Z" fill="currentColor"/>
<path d="M32.3994 89.6101C38.1094 89.6101 41.4394 85.5401 41.4394 79.8601V64.3701H35.1994V80.6401C35.1994 82.4501 34.4194 83.9001 32.3994 83.9001C30.3794 83.9001 29.5994 82.4501 29.5994 80.6401V64.3701H23.3594V79.8601C23.3594 85.5301 26.6894 89.6101 32.3994 89.6101Z" fill="currentColor"/>
<path d="M193.04 44.63C184.32 44.63 178.35 37.77 178.35 29.21C178.35 20.65 184.32 13.79 193.04 13.79C201.76 13.79 207.73 20.65 207.73 29.21C207.73 37.77 201.76 44.63 193.04 44.63ZM193.04 58.44C209.75 58.44 223.15 45.36 223.15 29.22C223.15 13.08 209.67 0 193.04 0C176.41 0 162.93 13.08 162.93 29.22C162.93 45.36 176.33 58.44 193.04 58.44ZM162.39 57.47V44.56H145.76V0.970001H131.55V43.75C131.55 53.84 134.86 57.47 144.95 57.47H162.38H162.39ZM101.19 13.88H107.24C110.71 13.88 112.73 16.06 112.73 18.96C112.73 21.86 110.71 24.37 107.24 24.37H101.19V13.88ZM101.19 57.47V37.13H108.7C119.52 37.13 127.26 28.82 127.26 19.05C127.26 9.28 120.56 0.970001 109.02 0.970001H86.98V57.47H101.19ZM67.53 28.08L83.35 0.960007H67.37L59.54 15.57L51.79 0.960007H35.65L51.07 28.97L34.84 57.46H50.98L59.21 41.4L67.12 57.46H83.51L67.53 28.08ZM32.37 57.47V44.56H14.21V35.2H31.08V22.53H14.21V13.89H32.37V0.979996H0V57.48H32.37V57.47Z" fill="currentColor"/>
<path d="M6.24002 70.0501H6.74002C10.81 70.0501 13.79 72.1802 13.79 76.7802C13.79 81.3802 10.78 83.5101 6.67001 83.5101H6.25V70.0401L6.24002 70.0501ZM6.06 89.1901C15.84 89.1901 20.31 83.7001 20.31 76.7901C20.31 69.8801 15.84 64.3901 6.06 64.3901H0V89.2001H6.06V89.1901Z" fill="currentColor"/>
<path d="M324.829 120.04V107.29H306.899V98.0403H323.559V85.5303H306.899V77.0003H324.829V64.2503H292.869V120.04H324.829ZM254.199 77.0003H255.319C264.489 77.0003 271.179 81.7803 271.179 92.1403C271.179 102.5 264.409 107.28 255.159 107.28H254.199V76.9903V77.0003ZM253.799 120.04C275.799 120.04 285.839 107.69 285.839 92.1403C285.839 76.5903 275.799 64.2403 253.799 64.2403H240.169V120.03H253.799V120.04ZM217.499 96.6103L206.579 71.3503C204.429 66.4103 200.999 63.6203 196.059 63.6203C191.119 63.6203 186.739 67.0503 186.739 73.5003V120.05H199.569V84.5003L212.079 112.79C214.549 118.37 217.419 120.68 221.959 120.68C226.499 120.68 230.329 118.21 230.329 112.07V64.2503H217.499V96.6103ZM150.259 107.37C141.649 107.37 135.749 100.6 135.749 92.1503C135.749 83.7003 141.649 76.9303 150.259 76.9303C158.869 76.9303 164.769 83.7003 164.769 92.1503C164.769 100.6 158.869 107.37 150.259 107.37ZM150.259 121C166.759 121 179.989 108.09 179.989 92.1503C179.989 76.2103 166.679 63.3003 150.259 63.3003C133.839 63.3003 120.529 76.2103 120.529 92.1503C120.529 108.09 133.759 121 150.259 121ZM102.189 63.6103C95.7294 63.6103 91.5094 67.7503 89.7594 75.5603L82.5094 108.08L74.9394 75.5603C73.0294 67.3503 69.0394 63.6103 62.7494 63.6103C56.1294 63.6103 51.1094 68.3103 51.1094 76.5203V120.04H64.0994V77.4803L71.5094 110.08C73.0994 117.01 76.6094 120.68 82.5094 120.68C88.4094 120.68 91.9094 116.85 93.4294 110.08L100.759 77.5603V120.04H113.829V76.5203C113.829 68.3103 108.889 63.6103 102.189 63.6103Z" fill="currentColor"/>
</svg>
