<svg width="411" height="154" viewBox="0 0 411 154" fill="none" xmlns="http://www.w3.org/2000/svg">
<path d="M40.9965 113.833C48.2211 113.833 52.4344 108.684 52.4344 101.497V81.8979H44.5392V102.484C44.5392 104.774 43.5523 106.609 40.9965 106.609C38.4407 106.609 37.4538 104.774 37.4538 102.484V81.8979H29.5586V101.497C29.5586 108.671 33.7719 113.833 40.9965 113.833Z" fill="#1D1D1B"/>
<path d="M244.245 56.9193C233.212 56.9193 225.658 48.2396 225.658 37.409C225.658 26.5783 233.212 17.8986 244.245 17.8986C255.278 17.8986 262.832 26.5783 262.832 37.409C262.832 48.2396 255.278 56.9193 244.245 56.9193ZM244.245 74.3926C265.387 74.3926 282.342 57.843 282.342 37.4216C282.342 17.0003 265.286 0.450684 244.245 0.450684C223.204 0.450684 206.148 17.0003 206.148 37.4216C206.148 57.843 223.103 74.3926 244.245 74.3926ZM205.465 73.1653V56.8308H184.424V1.67799H166.444V55.8059C166.444 68.5724 170.632 73.1653 183.399 73.1653H205.452H205.465ZM128.031 18.0125H135.686C140.076 18.0125 142.632 20.7708 142.632 24.4401C142.632 28.1093 140.076 31.2851 135.686 31.2851H128.031V18.0125ZM128.031 73.1653V47.4298H137.533C151.223 47.4298 161.016 36.9155 161.016 24.5539C161.016 12.1923 152.539 1.67799 137.938 1.67799H110.052V73.1653H128.031ZM85.4427 35.9792L105.459 1.66534H85.2403L75.3333 20.1508L65.5276 1.66534H45.1063L64.6166 37.1053L44.0815 73.1526H64.5027L74.9158 52.8325L84.9239 73.1526H105.661L85.4427 35.9792ZM40.9563 73.1653V56.8308H17.9793V44.9879H39.3242V28.957H17.9793V18.0252H40.9563V1.69063H0V73.1779H40.9563V73.1653Z" fill="#1D1D1B"/>
<path d="M7.89522 89.0847H8.52785C13.6774 89.0847 17.4479 91.7797 17.4479 97.5999C17.4479 103.42 13.6395 106.115 8.43927 106.115H7.90785V89.0721L7.89522 89.0847ZM7.66744 113.302C20.0416 113.302 25.6973 106.356 25.6973 97.6126C25.6973 88.8696 20.0416 81.9233 7.66744 81.9233H0V113.314H7.66744V113.302Z" fill="#1D1D1B"/>
<path d="M411 152.335V136.203H388.314V124.5H409.393V108.671H388.314V97.8785H411V81.7464H370.562V152.335H411ZM321.635 97.8785H323.052C334.654 97.8785 343.119 103.926 343.119 117.035C343.119 130.143 334.553 136.191 322.849 136.191H321.635V97.8659V97.8785ZM321.128 152.335C348.964 152.335 361.667 136.709 361.667 117.035C361.667 97.3598 348.964 81.7338 321.128 81.7338H303.883V152.323H321.128V152.335ZM275.2 122.69L261.383 90.7298C258.663 84.4794 254.323 80.9493 248.073 80.9493C241.822 80.9493 236.28 85.2891 236.28 93.4501V152.348H252.514V107.368L268.342 143.162C271.467 150.222 275.098 153.145 280.843 153.145C286.587 153.145 291.433 150.02 291.433 142.251V81.7464H275.2V122.69ZM190.124 136.305C179.23 136.305 171.765 127.739 171.765 117.047C171.765 106.356 179.23 97.79 190.124 97.79C201.018 97.79 208.483 106.356 208.483 117.047C208.483 127.739 201.018 136.305 190.124 136.305ZM190.124 153.55C211.001 153.55 227.74 137.216 227.74 117.047C227.74 96.879 210.899 80.5444 190.124 80.5444C169.348 80.5444 152.508 96.879 152.508 117.047C152.508 137.216 169.247 153.55 190.124 153.55ZM129.303 80.9367C121.13 80.9367 115.79 86.1749 113.576 96.0566L104.403 137.203L94.8248 96.0566C92.4082 85.6688 87.3598 80.9367 79.4014 80.9367C71.0254 80.9367 64.6738 86.8834 64.6738 97.2712V152.335H81.1095V98.4858L90.485 139.733C92.4968 148.502 96.9378 153.145 104.403 153.145C111.868 153.145 116.296 148.299 118.219 139.733L127.494 98.5871V152.335H144.031V97.2712C144.031 86.8834 137.78 80.9367 129.303 80.9367Z" fill="#1D1D1B"/>
</svg>
