<svg width="350" height="269" viewBox="0 0 350 269" fill="none" xmlns="http://www.w3.org/2000/svg">
<path d="M209.151 14.35C228.681 13.15 249.511 12.36 265.561 12.36C285.091 12.36 311.561 13.55 334.991 15.15V0C311.561 1.6 285.091 1.99001 265.561 1.99001C246.031 1.99001 219.561 1.59 196.131 0C193.961 21.13 185.901 75.33 185.211 79.65C192.831 79.65 190.551 79.76 197.271 79.76C198.201 72.8 205.251 31.5 209.151 14.35Z" fill="currentColor"/>
<path d="M0.00999451 1.41016V16.5602C27.35 14.1702 57.29 14.1702 80.29 14.1702H143.21L109.65 79.6602H123.42C133.73 59.8102 149.35 32.1802 160.56 11.7802V1.41016C132.79 3.80016 103.28 3.80016 80.28 3.80016C57.28 3.80016 27.34 3.80016 0 1.41016" fill="currentColor"/>
<path d="M349.32 186.7C349.32 138.06 312.87 104.96 259.06 104.96C253.67 104.96 242.96 105.92 236.32 106.79V117.15C243.07 116.25 253.56 115.33 259.06 115.33C304.63 115.33 332.83 141.65 332.83 186.7C332.83 231.75 304.62 258.47 259.06 258.47C218.27 258.47 192.66 236.54 187.46 199.06L171.4 201.45C177.48 242.12 211.33 268.83 259.06 268.83C312.87 268.83 349.32 235.74 349.32 186.69" fill="currentColor"/>
<path d="M17.8398 266.11L37.0999 266.42C47.2399 242.46 66.8499 199.75 77.4799 176.05H63.2798C51.7198 199.43 29.7998 242.83 17.8398 266.11Z" fill="currentColor"/>
<path d="M196.18 163.35C210.42 163.35 220.04 155.69 220.04 141.56C220.04 131.05 211.89 123.38 201.29 120.44C191.75 117.79 189.1 116.61 189.1 112.48C189.1 109.34 191.75 107.08 195.29 107.08C198.83 107.08 201.98 109.83 201.98 115.33H219.25C218.37 100.6 209.73 92.2603 195.29 92.2603C180.85 92.2603 171.53 100.99 171.53 113.76C171.53 126.53 179.77 132.13 190.08 134.69C200.21 137.25 202.37 139.01 202.37 143.14C202.37 146.19 200.21 148.54 196.28 148.54C192.35 148.54 189.1 145.98 188.71 140.19H171.24C172.12 155.02 181.35 163.36 196.18 163.36M146.3 133.3L132.84 102.17C130.19 96.0803 125.96 92.6403 119.87 92.6403C113.78 92.6403 108.39 96.8603 108.39 104.82V162.17H124.19V118.37L139.62 153.23C142.67 160.1 146.21 162.95 151.8 162.95C157.39 162.95 162.11 159.91 162.11 152.34V93.4203H146.31V133.29L146.3 133.3ZM71.0499 110.03L77.2399 136.94H64.4699L71.0499 110.03ZM101.4 162.17L88.0499 109.64C85.1999 98.5403 80.7799 92.6503 71.6499 92.6503C61.8299 92.6503 57.9999 98.6403 54.9599 109.84L40.9199 162.18H58.2999L60.8499 151.57H80.5899L83.0499 162.18H101.41L101.4 162.17Z" fill="currentColor"/>
</svg>
